<svg xmlns="http://www.w3.org/2000/svg" viewBox="0 0 146.37 147.21" width="146.37" height="147.21">
  <defs>
    <linearGradient id="bg-gradient" x1="0" y1="0" x2="0" y2="1">
      <stop offset="0%" stop-color="#3b82f6"/>
      <stop offset="100%" stop-color="#1d4ed8"/>
    </linearGradient>
  </defs>
  <rect width="146.37" height="147.21" rx="12" fill="url(#bg-gradient)"/>
  <g transform="translate(20, 20)">
    <path
      d="M106.37,38.5l-13.52-23.39c-4.2,2.42-21.75,15.51-32.54,26.15,3.83-14.67,6.39-36.43,6.39-41.26h-27.02c0,4.83,2.56,26.62,6.39,41.26-10.79-10.65-28.37-23.74-32.54-26.15L0,38.5c4.2,2.42,24.31,11.11,38.93,15.11-14.62,4.03-34.73,12.69-38.93,15.11l13.52,23.39c4.2-2.42,21.75-15.51,32.54-26.15-3.83,14.67-6.39,36.43-6.39,41.26h27.02c0-4.83-2.56-26.62-6.39-41.26,10.79,10.65,28.37,23.74,32.54,26.15l13.52-23.39c-4.2-2.42-24.31-11.11-38.93-15.11,14.62-4.03,34.73-12.69,38.93-15.11Z"
      fill="#ffffff"
    />
  </g>
</svg>